<?xml version="1.0" encoding="UTF-8" standalone="no"?>
<!-- Created with Inkscape (http://www.inkscape.org/) -->

<svg
   version="1.1"
   id="svg2"
   width="266.66666"
   height="266.66666"
   viewBox="0 0 266.66666 266.66666"
   sodipodi:docname="externalLink.svg"
   inkscape:version="1.2.1 (9c6d41e410, 2022-07-14)"
   xmlns:inkscape="http://www.inkscape.org/namespaces/inkscape"
   xmlns:sodipodi="http://sodipodi.sourceforge.net/DTD/sodipodi-0.dtd"
   xmlns="http://www.w3.org/2000/svg"
   xmlns:svg="http://www.w3.org/2000/svg">
  <defs
     id="defs6" />
  <sodipodi:namedview
     id="namedview4"
     pagecolor="#ffffff"
     bordercolor="#000000"
     borderopacity="0.25"
     inkscape:showpageshadow="2"
     inkscape:pageopacity="0.0"
     inkscape:pagecheckerboard="0"
     inkscape:deskcolor="#d1d1d1"
     showgrid="false"
     inkscape:zoom="1.5693751"
     inkscape:cx="50.338509"
     inkscape:cy="94.94225"
     inkscape:window-width="1920"
     inkscape:window-height="1017"
     inkscape:window-x="1912"
     inkscape:window-y="-8"
     inkscape:window-maximized="1"
     inkscape:current-layer="g8" />
  <g
     inkscape:groupmode="layer"
     inkscape:label="Image"
     id="g8">
    <g
       id="g899"
       transform="matrix(1.1833264,0,0,1.1833264,-320.21449,-41.239077)"
       style="stroke:#ffffff;fill:#ffffff">
      <path
         id="path447"
         style="fill:#ffffff;stroke:#ffffff;stroke-width:1.27439;stroke-linecap:round"
         d="m 433.92188,65.833984 c -26.05034,-0.01667 -26.65706,-0.0032 -27.5918,0.615235 -2.51211,1.661942 -3.98242,3.769689 -3.98242,5.708984 0,0.805278 0.14446,1.462891 0.32226,1.462891 0.17781,0 0.602,0.45751 0.94141,1.015625 0.86185,1.41717 3.11866,3.126953 4.12695,3.126953 0.46204,0 1.15823,0.224461 1.54883,0.498047 0.60863,0.426289 2.77183,0.522477 15.125,0.673828 15.74199,0.192871 15.84766,0.206056 15.84766,1.970703 0,0.711959 -0.66522,1.566263 -3.22657,4.134766 -1.77545,1.780402 -3.3538,3.236328 -3.50586,3.236328 -0.15207,0 -0.27539,0.12292 -0.27539,0.273437 0,0.343881 -6.05375,6.417969 -6.39648,6.417969 -0.13871,0 -0.3419,0.286261 -0.45313,0.636719 -0.11123,0.350448 -0.40911,0.636719 -0.66015,0.636719 -0.25103,0 -0.45508,0.119634 -0.45508,0.265624 0,0.343464 -19.4267,19.806638 -19.76953,19.806638 -0.14278,0 -0.35165,0.28626 -0.46289,0.63672 -0.11123,0.35046 -0.40718,0.63672 -0.65821,0.63672 -0.25103,0 -0.45703,0.11059 -0.45703,0.24414 0,0.34782 -6.05695,6.44727 -6.40234,6.44727 -0.15831,0 -0.28711,0.11737 -0.28711,0.26172 0,0.24148 -7.218,7.60868 -10.08008,10.28906 -0.67725,0.63426 -3.36596,3.32333 -5.97656,5.97461 -2.61061,2.65119 -4.85865,4.82031 -4.99609,4.82031 -0.13745,0 -0.34189,0.28626 -0.45313,0.63672 -0.11123,0.35046 -0.39749,0.63867 -0.63672,0.63867 -0.23923,0 -0.5194,0.24998 -0.62304,0.55664 -0.10374,0.30665 -0.83103,1.04091 -1.61524,1.63086 -0.78421,0.58997 -1.42578,1.17346 -1.42578,1.29688 0,0.35945 -2.82501,3.20507 -3.18164,3.20507 -0.17818,0 -0.32227,0.18874 -0.32227,0.41797 0,0.22923 -0.5382,0.82809 -1.19531,1.33203 -1.35302,1.03763 -3.57257,3.55415 -4.72266,5.35352 -0.9101,1.42404 -1.12627,4.8004 -0.32617,5.10742 0.24632,0.0945 0.54423,0.60303 0.66016,1.13086 0.16032,0.72993 0.47091,1.04579 1.30273,1.32031 0.6015,0.19852 1.09375,0.48477 1.09375,0.63477 0,0.15 0.39508,0.33019 0.87696,0.40039 1.33498,0.19454 3.36515,-0.11834 3.92773,-0.60547 0.27664,-0.23954 0.61558,-0.43555 0.75391,-0.43555 0.26387,0 16.98437,-16.54074 55.6289,-55.0332 24.52568,-24.429131 24.18336,-24.126138 25.22266,-22.30664 0.31331,0.548513 0.43136,4.192856 0.50586,15.52344 0.0933,14.18817 0.12328,14.83181 0.7168,15.38476 0.34069,0.31739 0.61914,0.9432 0.61914,1.38867 0,0.83704 2.0355,3.625 2.64648,3.625 0.18663,0 0.67411,0.31416 1.08399,0.69922 1.72395,1.61966 5.34422,-0.0149 7.26171,-3.27929 0.6234,-1.06131 0.63672,-1.65882 0.63672,-27.687503 V 70.652344 c -0.0137,-0.06523 -0.029,-0.130152 -0.043,-0.195313 -0.0572,-0.174296 -0.115,-0.347468 -0.16796,-0.523437 -0.0591,-0.170007 -0.11497,-0.34081 -0.17188,-0.511719 l -0.33984,-0.476563 c -0.39759,-0.557389 -1.31463,-1.482482 -2.03711,-2.054687 l -1.03711,-0.822266 c -0.37722,-0.07462 -0.7547,-0.148738 -1.13282,-0.21875 z" />
      <path
         id="path634"
         style="fill:#ffffff;stroke:#ffffff;stroke-width:1.80226;stroke-linecap:round"
         d="m 349.29102,89.751953 c -17.05964,0 -29.1801,0.172669 -29.64258,0.421875 -1.50039,0.808478 -3.85227,1.830078 -4.21094,1.830078 -1.48999,0 -9.41405,7.065948 -9.41406,8.394534 -10e-6,0.52723 -0.30406,1.21103 -0.67578,1.51953 -0.37172,0.3085 -0.67578,0.85381 -0.67578,1.21289 -10e-6,0.35907 -0.30407,0.9564 -0.67579,1.32812 -0.37171,0.37171 -0.67578,1.23018 -0.67578,1.90625 0,0.67617 -0.25274,1.4832 -0.5625,1.79297 -0.4439,0.44389 -0.5625,11.31287 -0.5625,51.30469 0,40.19208 0.11638,50.77913 0.5625,50.92773 0.30976,0.10326 0.5625,0.86634 0.5625,1.69532 0,0.829 0.30407,1.81188 0.67578,2.18359 0.37172,0.37172 0.68246,1.04482 0.68946,1.49609 0.007,0.45137 0.61501,1.41199 1.35156,2.13477 0.73655,0.72278 1.33984,1.68631 1.33984,2.14063 0,0.45432 0.30407,0.82617 0.67578,0.82617 0.37172,0 0.67579,0.25953 0.67579,0.57617 0,0.75323 1.30934,1.85089 3.37695,2.83203 0.9142,0.43382 1.76492,1.0599 1.89258,1.39258 0.12766,0.33268 0.69319,0.60547 1.25586,0.60547 0.56268,0 1.27548,0.30407 1.58398,0.67578 0.3085,0.37172 1.01934,0.67578 1.58008,0.67578 0.56073,0 1.70142,0.29618 2.53515,0.6582 1.29826,0.56364 8.61021,0.66068 50.89063,0.67578 27.15568,0.01 49.51706,-0.12254 49.68945,-0.29492 0.34116,-0.34117 1.0853,-0.54508 3.3125,-0.90234 0.79671,-0.12779 1.68192,-0.51376 1.96875,-0.85938 0.28684,-0.34561 0.89115,-0.6289 1.3418,-0.6289 0.45065,0 0.9445,-0.20336 1.09766,-0.45117 0.12088,-0.1956 0.4686,-0.33298 0.83203,-0.39454 1.11012,-0.8234 2.18812,-1.6895 3.19336,-2.64062 1.12188,-1.06859 2.23028,-2.15746 3.26367,-3.3125 0.33462,-0.40071 0.65994,-0.80907 0.97851,-1.22266 0.0287,-0.0822 0.0684,-0.17268 0.0684,-0.23047 0,-0.36426 0.30417,-0.77922 0.67578,-0.92187 0.0659,-0.0253 0.12523,-0.0734 0.18555,-0.11914 0.15138,-0.22164 0.29797,-0.44668 0.44141,-0.67383 0.0295,-0.10756 0.0488,-0.21705 0.0488,-0.32617 0,-0.47306 0.30406,-1.11338 0.67578,-1.42188 0.37172,-0.30849 0.67578,-1.00139 0.67578,-1.54101 0,-0.53962 0.25273,-1.23516 0.5625,-1.54492 0.43878,-0.43878 0.56445,-6.9038 0.56445,-29.26368 0,-30.87051 0.026,-30.49813 -2.33398,-32.92968 -0.92728,-0.95542 -1.43928,-1.07227 -4.67188,-1.07227 -3.2303,0 -3.74034,0.11604 -4.62109,1.05859 -2.43344,2.6045 -2.32403,1.2923 -2.56641,30.82422 l -0.22461,27.48438 -1.05078,2.11328 c -2.04267,4.10816 3.17153,3.74414 -53.7832,3.74414 -39.66136,0 -50.44871,-0.11865 -50.89258,-0.5625 -0.30979,-0.30976 -0.88874,-0.5625 -1.28711,-0.5625 -0.40697,0 -1.05788,-0.75741 -1.48633,-1.72852 -0.70156,-1.59003 -0.76367,-5.77128 -0.76367,-52.26562 0,-20.12295 0.0645,-33.58505 0.17383,-41.71094 -0.0304,-0.65394 -0.0396,-1.30787 -0.0215,-1.96289 0.0126,-0.70015 0.0292,-1.401 0.0801,-2.09961 1.1e-4,-0.001 -10e-5,-0.003 0,-0.004 0.0619,-2.87905 0.13216,-4.75977 0.21875,-4.75977 0.24781,0 0.45118,-0.29081 0.45117,-0.64453 0,-0.35372 1.15945,-1.19214 2.57813,-1.86328 l 2.58008,-1.21875 26.82031,-0.19336 c 23.49826,-0.16865 27.04399,-0.28407 28.62305,-0.92969 3.00149,-1.22723 3.57365,-2.11745 3.76172,-5.841796 0.19538,-3.868997 -0.36757,-5.043963 -3.07618,-6.425781 -1.72664,-0.880907 -2.60442,-0.90625 -30.63671,-0.90625 z" />
    </g>
  </g>
</svg>
