<?xml version="1.0" encoding="UTF-8" standalone="no"?>
<!-- Created with Inkscape (http://www.inkscape.org/) -->

<svg
   version="1.1"
   id="svg2"
   width="600"
   height="600"
   viewBox="0 0 600 600"
   sodipodi:docname="githubWhite.svg"
   inkscape:version="1.2.1 (9c6d41e410, 2022-07-14)"
   xmlns:inkscape="http://www.inkscape.org/namespaces/inkscape"
   xmlns:sodipodi="http://sodipodi.sourceforge.net/DTD/sodipodi-0.dtd"
   xmlns="http://www.w3.org/2000/svg"
   xmlns:svg="http://www.w3.org/2000/svg">
  <sodipodi:namedview
     id="namedview6"
     pagecolor="#ffffff"
     bordercolor="#000000"
     borderopacity="0.25"
     inkscape:showpageshadow="2"
     inkscape:pageopacity="0.0"
     inkscape:pagecheckerboard="0"
     inkscape:deskcolor="#d1d1d1"
     showgrid="false"
     inkscape:zoom="0.98641396"
     inkscape:cx="255.97772"
     inkscape:cy="321.36609"
     inkscape:window-width="1920"
     inkscape:window-height="1017"
     inkscape:window-x="1912"
     inkscape:window-y="-8"
     inkscape:window-maximized="1"
     inkscape:current-layer="svg2" />
  <defs
     id="defs6" />
  <path
     style="fill:#000000;stroke:#000000;stroke-width:2.86738;stroke-linecap:round"
     d="m 222.51701,521.59001 c -6.88055,-2.53354 -5.57282,-1.94452 -21.49493,-9.6815 -7.09104,-3.44573 -13.70394,-6.82083 -14.69534,-7.50024 -0.99141,-0.6794 -4.54449,-2.94571 -7.89575,-5.03625 -17.37598,-10.83925 -34.59633,-25.31643 -48.6002,-40.85829 -14.50738,-16.10066 -24.37893,-30.68779 -34.911352,-51.58827 -4.104516,-8.14497 -4.547971,-9.09566 -7.523502,-16.12903 -0.833987,-1.97133 -1.798833,-4.22939 -2.144101,-5.01792 -0.581315,-1.32762 -2.30312,-6.4728 -2.578797,-7.70609 -0.0661,-0.2957 -0.209634,-0.77957 -0.31897,-1.07527 -0.109335,-0.2957 -0.261481,-0.86022 -0.338102,-1.25448 -0.191444,-0.98511 -1.059103,-3.2761 -1.942408,-5.12879 -0.405017,-0.84949 -0.531795,-1.87559 -0.281728,-2.28021 0.250067,-0.40462 0.126824,-0.93829 -0.273872,-1.18593 -0.400697,-0.24764 -0.728539,-1.21864 -0.728539,-2.15776 0,-0.93913 -0.344572,-1.92046 -0.765716,-2.18074 -0.421143,-0.26029 -0.596522,-0.91415 -0.389731,-1.45305 0.206793,-0.53889 0.06749,-1.17046 -0.309552,-1.40348 -0.377046,-0.23303 -0.685539,-1.2421 -0.685539,-2.24238 0,-1.00028 -0.514517,-3.58857 -1.143371,-5.75175 -0.628854,-2.16318 -0.985679,-4.53607 -0.792945,-5.27309 0.192735,-0.73702 0.08446,-1.43614 -0.240606,-1.55361 -0.935877,-0.3382 -2.894933,-20.51708 -3.326479,-34.26377 -0.450702,-14.35691 1.884454,-43.86364 3.914438,-49.46236 0.561179,-1.54774 0.547651,-1.48803 1.13687,-5.01792 0.296153,-1.7742 0.984223,-4.83871 1.529045,-6.81004 3.008364,-10.88515 4.059773,-14.47848 4.614487,-15.77061 0.338517,-0.78853 1.003176,-2.56272 1.47702,-3.94265 0.473845,-1.37993 1.128337,-3.15412 1.454428,-3.94265 0.326091,-0.78853 1.424426,-3.59013 2.440743,-6.22577 1.831554,-4.74982 11.746788,-24.81791 14.987099,-30.33337 15.7625,-26.83001 38.00109,-51.2004 63.91343,-70.04024 3.54838,-2.57989 8.2258,-5.74916 10.39426,-7.04282 2.16846,-1.29366 5.55556,-3.38176 7.52688,-4.64021 3.66201,-2.33776 25.21699,-13.053473 29.74911,-14.789293 1.37993,-0.52852 2.75089,-0.88425 3.04659,-0.7905 0.2957,0.0937 0.53764,-0.11453 0.53764,-0.46284 0,-0.3483 0.7258,-0.79501 1.6129,-0.99268 0.8871,-0.19767 3.79953,-1.17761 6.47209,-2.17765 2.67255,-1.00004 4.93061,-1.82284 5.01792,-1.82843 0.0873,-0.006 0.64261,-0.16535 1.234,-0.355 0.97279,-0.31196 4.85098,-1.32119 5.73477,-1.49237 0.19713,-0.0382 0.681,-0.26921 1.07527,-0.51339 0.39427,-0.24418 2.16846,-0.66075 3.94265,-0.92572 1.7742,-0.26496 3.87097,-0.77486 4.6595,-1.13311 1.34428,-0.61075 4.35593,-1.28156 12.87434,-2.8676 12.97266,-2.41538 33.30942,-3.55961 50.4208,-2.83689 21.40913,0.90424 31.17351,2.29925 48.53282,6.93375 3.54838,0.94733 7.74193,2.03535 9.31899,2.41783 1.57706,0.38247 3.51255,0.97681 4.30108,1.32076 0.78853,0.34394 4.98208,1.99331 9.319,3.66526 14.3499,5.53212 31.95048,14.481043 43.95943,22.350933 2.88736,1.89219 5.40978,3.44035 5.60538,3.44035 0.87567,0 13.66074,10.40172 22.44024,18.257 8.47207,7.58022 24.1909,24.08296 26.20283,27.5096 0.39427,0.67149 2.99196,4.27774 5.77266,8.01388 2.7807,3.73615 6.32617,8.88977 7.87881,11.4525 1.55264,2.56272 2.98771,4.82078 3.18905,5.01792 0.20134,0.19713 0.84891,1.32616 1.43905,2.50896 0.59014,1.18279 1.24062,2.31183 1.44551,2.50896 1.34111,1.29036 9.46157,17.65595 9.51476,19.17563 0.0173,0.49283 0.26256,0.89605 0.54514,0.89605 0.28256,0 0.74992,0.72581 1.03857,1.61291 0.28864,0.88709 0.58181,1.77419 0.65148,1.97132 0.0697,0.19714 0.84845,1.95336 1.73063,3.90271 0.88218,1.94936 1.80015,4.36872 2.03993,5.37635 0.23978,1.00763 0.67762,2.15463 0.97296,2.5489 1.57081,2.09695 8.83972,32.14276 10.05863,41.57706 0.45846,3.54839 1.09352,8.22581 1.41124,10.39427 1.40863,9.61359 0.35392,47.44029 -1.68894,60.57347 -3.65651,23.50713 -11.86663,49.42526 -21.52804,67.96086 -18.94025,36.33721 -44.89899,65.39726 -78.56428,87.9504 -3.72955,2.49851 -7.1973,4.54274 -7.70609,4.54274 -0.5088,0 -0.92508,0.23803 -0.92508,0.52895 0,0.87946 -23.56103,13.56902 -25.19395,13.56902 -0.48537,0 -4.90843,1.85802 -10.28992,4.32253 -3.13738,1.43681 -7.97185,3.01942 -9.49821,3.10934 -0.8871,0.0523 -1.61291,0.3789 -1.61291,0.72588 0,1.03289 -6.03158,0.0358 -8.13987,-1.34558 -1.07358,-0.70344 -2.64415,-2.76588 -3.49015,-4.58321 -1.49543,-3.21237 -1.55151,-4.42018 -2.01728,-43.44759 -0.50647,-42.43702 -0.43445,-41.52065 -3.97137,-50.53764 -0.54128,-1.37993 -1.0727,-2.98022 -1.18094,-3.55621 -0.10824,-0.576 -0.44798,-1.38245 -0.75497,-1.79212 -0.307,-0.40967 -1.99687,-2.84163 -3.75527,-5.40436 -2.75749,-4.01881 -3.04691,-4.77145 -2.10488,-5.47373 0.60071,-0.44783 4.87122,-1.3648 9.49002,-2.03771 4.61881,-0.67292 8.95858,-1.51658 9.64394,-1.87479 0.68536,-0.35822 3.58859,-1.0422 6.45161,-1.51998 2.86303,-0.47777 5.3668,-1.04456 5.56393,-1.25953 0.19713,-0.21496 2.13262,-0.99866 4.30108,-1.74155 7.3935,-2.53291 18.29969,-7.2276 19.35484,-8.33149 0.96913,-1.0139 4.30244,-2.81482 4.31205,-2.32971 0.006,0.30479 0.24797,0.20902 0.53763,-0.2128 0.28966,-0.42183 2.46214,-2.17851 4.82773,-3.90371 10.05739,-7.33478 19.71938,-19.16893 25.44513,-31.16555 3.08942,-6.47295 7.57586,-21.46938 8.32187,-27.81674 0.26207,-2.22977 0.68645,-3.92436 0.94307,-3.76576 0.65904,0.40731 0.68431,-0.0288 1.20232,-20.75333 0.33966,-13.58875 0.22295,-19.9974 -0.43082,-23.65591 -0.49318,-2.75986 -0.93635,-5.90502 -0.98483,-6.98925 -0.0485,-1.08423 -0.33007,-1.97132 -0.62577,-1.97132 -0.2957,0 -0.53763,-0.57671 -0.53763,-1.28157 0,-1.80486 -4.11644,-13.42716 -6.27432,-17.71485 -2.33271,-4.63507 -5.40676,-9.14763 -9.26988,-13.60776 -1.70159,-1.96456 -3.09379,-4.09147 -3.09379,-4.72648 0,-0.63502 0.60064,-2.90038 1.33476,-5.03413 2.27114,-6.6012 3.21253,-15.76 2.60405,-25.33518 -0.83849,-13.19512 -0.87421,-13.53729 -1.61296,-15.45416 -0.37986,-0.98566 -1.10082,-3.5663 -1.60213,-5.73476 -0.50132,-2.16846 -1.14734,-4.26524 -1.4356,-4.6595 -0.28828,-0.39427 -0.7325,-1.58981 -0.98717,-2.65678 -0.35241,-1.47641 -1.01973,-2.04435 -2.79293,-2.37701 -3.17949,-0.59648 -12.96373,-0.1313 -13.52686,0.64311 -0.25086,0.34498 -1.29924,0.62724 -2.32975,0.62724 -1.0305,0 -1.87364,0.24563 -1.87364,0.54585 0,0.30021 -1.44409,0.7624 -3.20909,1.02707 -1.76501,0.26468 -3.39695,0.78519 -3.62654,1.15667 -0.22959,0.37148 -0.91361,0.67543 -1.52003,0.67543 -1.00758,0 -16.36627,6.95754 -18.88448,8.55474 -3.75601,2.38229 -15.59771,9.2267 -16.49885,9.53622 -0.98593,0.33864 -4.54757,-0.29479 -12.53341,-2.22904 -1.57706,-0.38198 -5.0448,-0.91895 -7.70609,-1.19326 -2.66129,-0.27433 -4.83871,-0.71464 -4.83871,-0.97849 0,-0.26385 -0.56452,-0.4976 -1.25448,-0.51945 -0.68997,-0.0219 -6.73835,-0.49419 -13.44086,-1.04966 -13.57323,-1.12489 -39.84528,-0.86808 -41.91275,0.40969 -0.42593,0.26324 -2.13755,0.4122 -3.8036,0.33103 -1.66604,-0.0812 -3.98734,0.23656 -5.15843,0.70608 -1.1711,0.46951 -2.76721,0.68684 -3.54694,0.48294 -0.77971,-0.2039 -1.83471,-0.0246 -2.34445,0.39844 -0.50974,0.42304 -1.89749,0.6267 -3.0839,0.45258 -1.1864,-0.17413 -2.1571,-0.0499 -2.1571,0.27609 0,0.32599 -0.9487,0.5927 -2.10823,0.5927 -1.15953,0 -2.28728,0.28971 -2.50613,0.6438 -0.66202,1.07117 -9.87424,1.70404 -11.8731,0.81566 -0.98566,-0.43806 -3.72759,-2.06798 -6.09319,-3.62204 -5.04757,-3.31596 -21.07125,-11.59959 -26.39873,-13.64715 -8.67045,-3.33236 -22.9013,-5.80468 -27.20081,-4.72557 -1.98522,0.49826 -3.13643,3.09036 -5.45894,12.29157 -3.00237,11.89468 -3.68397,21.26241 -2.36737,32.53691 0.43228,3.70175 0.74969,6.92755 0.70536,7.16846 -0.0902,0.49004 0.53206,2.20754 2.01588,5.56425 0.54919,1.24238 0.99852,2.80656 0.99852,3.47595 0,0.66939 -1.97586,3.83924 -4.39079,7.0441 -2.41494,3.20487 -4.72479,6.56004 -5.13299,7.45595 -0.4082,0.89591 -1.01299,1.62893 -1.34397,1.62893 -0.33098,0 -0.60178,0.37199 -0.60178,0.82664 0,0.45464 -0.92465,2.79335 -2.05476,5.19713 -2.51549,5.35047 -5.25497,13.44639 -6.81531,20.1411 -1.59849,6.85842 -1.63783,35.63431 -0.0641,46.91717 1.78498,12.79777 6.12387,27.08124 10.68108,35.16169 1.00061,1.77419 2.22431,4.03226 2.71932,5.01792 0.49501,0.98566 1.14159,2.11469 1.43683,2.50896 10.9933,14.68038 20.45241,23.04816 33.5235,29.65578 13.27875,6.71258 25.53224,10.53021 43.17751,13.45215 4.13634,0.68495 6.79939,1.44235 6.54105,1.86034 -0.26773,0.43321 0.17536,0.51109 1.14926,0.20199 1.37753,-0.43722 1.4918,-0.32894 0.87301,0.82727 -0.39159,0.73169 -1.42566,1.97189 -2.29794,2.75601 -3.87193,3.48059 -8.55993,13.21622 -9.66125,20.06366 -0.25364,1.57706 -0.94627,3.62014 -1.53917,4.54017 -0.94788,1.47087 -5.03579,3.85013 -7.05967,4.1089 -0.90181,0.11531 -3.11562,0.93459 -5.14878,1.90545 -0.8605,0.4109 -2.03086,0.56815 -2.60081,0.34944 -0.56996,-0.21871 -1.36121,-0.0727 -1.75835,0.32442 -0.39714,0.39714 -4.38806,0.73883 -8.86871,0.75932 -13.5709,0.0621 -20.87692,-2.67357 -29.82994,-11.16939 -2.96717,-2.81566 -7.346,-8.02261 -9.73072,-11.571 -8.12546,-12.09043 -19.3932,-21.28977 -28.45772,-23.23376 -2.00182,-0.42931 -6.45526,-0.78057 -9.89652,-0.78057 -6.82355,0 -9.16378,0.92091 -9.57972,3.76975 -0.31418,2.15188 4.15605,6.94073 9.81523,10.51482 4.81065,3.0382 12.47187,10.89773 16.4183,16.84328 2.21913,3.34327 7.32184,13.03828 10.78175,20.48505 2.29536,4.94031 3.37978,6.45507 8.56982,11.97067 5.92965,6.3016 12.86934,10.69892 22.25649,14.10272 5.68787,2.06244 6.00047,2.09389 21.54223,2.16741 8.67384,0.041 17.59979,-0.16712 19.83546,-0.46258 l 4.06486,-0.5372 0.52007,4.83827 c 0.72163,6.71335 -0.11749,35.17447 -1.11484,37.81318 -0.44706,1.1828 -1.82407,3.19893 -3.06003,4.48029 -2.09608,2.17308 -2.56312,2.32741 -6.94528,2.2949 -3.35866,-0.0249 -6.33307,-0.63688 -10.43286,-2.14648 z"
     id="path556" />
  <path
     style="fill:#ffffff;stroke:#ffffff;stroke-width:4.05509;stroke-linecap:round"
     d="m 222.52321,522.51072 c -9.90495,-3.49734 -34.45877,-15.97366 -44.99502,-22.86293 -21.04116,-13.75802 -39.13304,-29.6289 -54.15286,-47.50496 C 99.499016,423.72611 78.174854,378.5093 73.892646,347.21731 c -0.190756,-1.39394 -0.895672,-5.49972 -1.56648,-9.12396 -1.652983,-8.93072 -1.676264,-55.78093 -0.033,-66.40214 1.94338,-12.56099 7.09225,-32.39894 11.353508,-43.74365 5.361546,-14.27399 17.115456,-37.45309 25.053966,-49.40725 16.88044,-25.41931 41.57952,-49.85027 67.189,-66.45963 9.97496,-6.46939 37.17924,-20.334209 39.89793,-20.334209 0.85091,0 1.8192,-0.440245 2.15175,-0.978321 1.33058,-2.152928 31.75103,-10.637562 48.17614,-13.436909 11.62591,-1.981416 59.63696,-1.64934 71.97789,0.497846 39.46512,6.866495 79.37435,24.959883 107.96684,48.948243 32.42464,27.20343 55.688,59.16426 69.8209,95.9249 4.33943,11.28714 9.97516,33.84599 12.20469,48.8532 2.92462,19.68596 1.71835,57.96505 -2.46774,78.30975 -4.03395,19.6053 -11.28472,41.21951 -19.00663,56.65786 -14.64719,29.28402 -40.27291,60.40495 -65.62008,79.69174 -10.65107,8.10444 -21.79613,15.56009 -21.79613,14.58082 0,-0.31764 -0.87986,0.23859 -1.95524,1.23606 -3.00849,2.79055 -20.71431,11.8414 -32.00616,16.3609 -12.32031,4.93114 -17.60867,5.86604 -21.57623,3.81433 -5.88959,-3.04562 -6.19182,-5.18736 -7.16884,-50.80237 -0.85649,-39.98734 -0.9798,-41.79554 -3.24956,-47.64734 -1.29761,-3.34545 -3.85255,-8.3351 -5.67765,-11.0881 -2.32955,-3.51394 -3.01608,-5.36967 -2.30395,-6.22774 0.55792,-0.67227 4.07834,-1.78184 7.82316,-2.46572 32.03688,-5.85065 51.81199,-14.8429 66.18956,-30.09809 12.08578,-12.8235 18.07412,-24.28752 22.26501,-42.62391 1.11548,-4.88056 2.38067,-9.55805 2.81153,-10.39441 0.43087,-0.83637 0.76454,-12.01322 0.74149,-24.83745 -0.0409,-22.72766 -0.11427,-23.54454 -2.90638,-32.33161 -4.15754,-13.08421 -6.79748,-18.50614 -12.84288,-26.37682 l -5.38126,-7.00601 1.92724,-7.18682 c 3.03455,-11.31606 2.56161,-32.73997 -0.97897,-44.34774 -2.59549,-8.5093 -2.75959,-8.757 -6.23306,-9.40863 -1.96207,-0.36808 -3.93116,-0.44442 -4.37577,-0.16963 -0.44461,0.27478 -2.97256,0.61163 -5.61765,0.74855 -2.6451,0.13692 -5.03767,0.61852 -5.31684,1.07022 -0.27917,0.45171 -1.22358,0.82128 -2.0987,0.82128 -2.94018,0 -21.00513,8.22634 -31.61208,14.39539 -11.61641,6.75614 -9.56506,6.49279 -26.39119,3.38802 -4.68517,-0.86451 -9.01905,-1.9271 -9.63084,-2.36131 -1.74592,-1.23914 -51.92969,-1.50188 -60.41807,-0.31631 -4.18182,0.58406 -12.67833,2.07589 -18.88115,3.31517 l -11.27784,2.25323 -8.99763,-5.16017 c -20.97506,-12.02931 -31.74084,-16.23287 -46.00309,-17.96219 -3.905,-0.47348 -6.09551,-0.28376 -7.30192,0.63244 -0.94789,0.71987 -2.77144,5.18653 -4.05235,9.92592 -3.18126,11.77082 -3.41019,37.31973 -0.4023,44.89815 l 1.92661,4.85411 -4.89875,7.16958 c -2.69432,3.94327 -5.38608,7.68949 -5.9817,8.32494 -1.14057,1.21683 -1.85852,2.9704 -6.90645,16.86884 -3.0044,8.27198 -3.14705,9.39913 -3.56203,28.14499 -0.48013,21.68892 0.5285,32.14079 4.40419,45.63822 6.88368,23.97301 21.66522,42.46321 42.99783,53.78593 12.44155,6.60361 25.95125,10.74081 51.41965,15.74673 2.6091,0.51284 2.47354,1.70703 -0.58985,5.19604 -4.03634,4.59713 -6.60107,9.6421 -8.77991,17.27052 -2.12634,7.44462 -4.44302,10.08213 -10.67344,12.15154 -7.65181,2.54153 -10.02226,2.87816 -19.71806,2.80023 -12.46786,-0.10026 -18.82508,-2.57613 -27.53523,-10.72405 -3.63935,-3.40444 -8.59717,-8.96484 -11.01738,-12.35648 -6.12149,-8.57849 -15.59617,-17.33351 -21.96907,-20.30039 -4.42062,-2.05799 -6.95232,-2.50339 -14.2759,-2.51154 -13.05254,-0.0145 -13.23106,2.88685 -0.74706,12.14162 9.92479,7.35755 16.6751,15.99666 24.29732,31.09591 8.09232,16.0305 14.61113,23.11417 26.91677,29.24912 l 8.11018,4.04332 h 22.55646 22.55645 l -0.006,19.26169 c -0.006,20.74581 -0.68186,25.123 -4.51757,29.2618 -2.03982,2.201 -3.3338,2.65899 -7.3402,2.59798 -2.67511,-0.0408 -7.37292,-0.96001 -10.43959,-2.04282 z"
     id="path388" />
</svg>
