<?xml version="1.0" encoding="UTF-8" standalone="no"?>
<svg
   id="visual"
   viewBox="0 0 700.29883 577.00782"
   width="700.29883"
   height="577.00781"
   version="1.1"
   sodipodi:docname="layeredWaves.svg"
   inkscape:version="1.2.1 (9c6d41e410, 2022-07-14)"
   xmlns:inkscape="http://www.inkscape.org/namespaces/inkscape"
   xmlns:sodipodi="http://sodipodi.sourceforge.net/DTD/sodipodi-0.dtd"
   xmlns="http://www.w3.org/2000/svg"
   xmlns:svg="http://www.w3.org/2000/svg">
  <defs
     id="defs17" />
  <sodipodi:namedview
     id="namedview15"
     pagecolor="#ffffff"
     bordercolor="#000000"
     borderopacity="0.25"
     inkscape:showpageshadow="2"
     inkscape:pageopacity="0.0"
     inkscape:pagecheckerboard="0"
     inkscape:deskcolor="#d1d1d1"
     showgrid="false"
     inkscape:zoom="0.66944444"
     inkscape:cx="-86.639004"
     inkscape:cy="200.16597"
     inkscape:window-width="1920"
     inkscape:window-height="1017"
     inkscape:window-x="1912"
     inkscape:window-y="-8"
     inkscape:window-maximized="1"
     inkscape:current-layer="visual" />
  <rect
     x="0.23289309"
     y="0"
     width="699.83405"
     height="389.75668"
     fill="#272727"
     id="rect2"
     style="stroke-width:0.710717" />
  <path
     d="m 0.23289,272.50492 12.98581,1.69087 c 12.90805,1.62824 38.87967,5.00997 64.77353,5.94934 25.89386,0.93937 51.86547,-0.56362 77.75933,-0.31312 25.89386,0.18787 51.86548,2.06661 77.75934,1.25249 25.89386,-0.87674 51.86548,-4.38373 77.75933,-1.18987 25.89386,3.25649 51.86548,13.27643 77.75934,13.40168 25.89386,0.0626 51.86548,-9.70682 77.75934,-12.14918 25.89386,-2.37974 51.86547,2.63023 77.75933,3.88273 25.89386,1.25249 51.86548,-1.2525 77.75934,-3.75749 25.89386,-2.50498 51.86548,-5.00997 64.77353,-6.26246 l 12.9858,-1.2525 v 120.86563 h -12.9858 c -12.90805,0 -38.87967,0 -64.77353,0 -25.89386,0 -51.86548,0 -77.75934,0 -25.89386,0 -51.86547,0 -77.75933,0 -25.89386,0 -51.86548,0 -77.75934,0 -25.89386,0 -51.86548,0 -77.75934,0 -25.89385,0 -51.86547,0 -77.75933,0 -25.89386,0 -51.86548,0 -77.75934,0 -25.89386,0 -51.86547,0 -77.75933,0 -25.89386,0 -51.86548,0 -64.77353,0 H 0.23289 Z"
     fill="#3d3d3d"
     id="path4"
     style="stroke-width:0.697829" />
  <path
     d="m 0.23289,286.9086 12.98581,1.25249 c 12.90805,1.25249 38.87967,3.75748 64.77353,8.01596 25.89386,4.3211 51.86547,10.33307 77.75933,11.39769 25.89386,1.06462 51.86548,-2.94336 77.75934,-6.45034 25.89386,-3.56961 51.86548,-6.70084 77.75933,-7.82809 25.89386,-1.18987 51.86548,-0.31312 77.75934,3.50699 25.89386,3.88273 51.86548,10.77144 77.75934,11.52294 25.89386,0.68887 51.86547,-4.69685 77.75933,-7.01397 25.89386,-2.31711 51.86548,-1.44037 77.75934,-2.00399 25.89386,-0.501 51.86548,-2.37974 64.77353,-3.31911 l 12.9858,-0.93937 v 99.57324 h -12.9858 c -12.90805,0 -38.87967,0 -64.77353,0 -25.89386,0 -51.86548,0 -77.75934,0 -25.89386,0 -51.86547,0 -77.75933,0 -25.89386,0 -51.86548,0 -77.75934,0 -25.89386,0 -51.86548,0 -77.75934,0 -25.89385,0 -51.86547,0 -77.75933,0 -25.89386,0 -51.86548,0 -77.75934,0 -25.89386,0 -51.86547,0 -77.75933,0 -25.89386,0 -51.86548,0 -64.77353,0 H 0.23289 Z"
     fill="#654636"
     id="path6"
     style="stroke-width:0.697829" />
  <path
     d="m 0.23289,329.49338 12.98581,1.44036 c 12.90805,1.503 38.87967,4.38373 64.77353,5.94935 25.89386,1.56562 51.86547,1.81611 77.75933,-1.12724 25.89386,-2.94336 51.86548,-8.95533 77.75934,-11.27245 25.89386,-2.31711 51.86548,-0.81412 77.75933,-1.87874 25.89386,-1.06462 51.86548,-4.5716 77.75934,-7.01396 25.89386,-2.37974 51.86548,-3.63223 77.75934,-0.501 25.89386,3.13124 51.86547,10.6462 77.75933,12.65019 25.89386,1.94136 51.86548,-1.56562 77.75934,-4.00798 25.89386,-2.37974 51.86548,-3.63223 64.77353,-4.25848 l 12.9858,-0.62625 v 75.77586 h -12.9858 c -12.90805,0 -38.87967,0 -64.77353,0 -25.89386,0 -51.86548,0 -77.75934,0 -25.89386,0 -51.86547,0 -77.75933,0 -25.89386,0 -51.86548,0 -77.75934,0 -25.89386,0 -51.86548,0 -77.75934,0 -25.89385,0 -51.86547,0 -77.75933,0 -25.89386,0 -51.86548,0 -77.75934,0 -25.89386,0 -51.86547,0 -77.75933,0 -25.89386,0 -51.86548,0 -64.77353,0 H 0.23289 Z"
     fill="#8a4e2d"
     id="path8"
     style="stroke-width:0.697829" />
  <path
     d="m 0.23289,337.63459 12.98581,3.63223 c 12.90805,3.69485 38.87967,10.95932 64.77353,12.46231 25.89386,1.44037 51.86547,-2.94336 77.75933,-7.32709 25.89386,-4.38373 51.86548,-8.76745 77.75934,-10.52095 25.89386,-1.81611 51.86548,-0.93937 77.75933,1.2525 25.89386,2.19186 51.86548,5.69884 77.75934,8.76745 25.89386,3.00599 51.86548,5.51097 77.75934,3.31911 25.89386,-2.19186 51.86547,-9.08058 77.75933,-9.3937 25.89386,-0.31312 51.86548,5.94934 77.75934,9.3937 25.89386,3.44436 51.86548,4.0706 64.77353,4.38373 l 12.9858,0.31312 v 40.70604 h -12.9858 c -12.90805,0 -38.87967,0 -64.77353,0 -25.89386,0 -51.86548,0 -77.75934,0 -25.89386,0 -51.86547,0 -77.75933,0 -25.89386,0 -51.86548,0 -77.75934,0 -25.89386,0 -51.86548,0 -77.75934,0 -25.89385,0 -51.86547,0 -77.75933,0 -25.89386,0 -51.86548,0 -77.75934,0 -25.89386,0 -51.86547,0 -77.75933,0 -25.89386,0 -51.86548,0 -64.77353,0 H 0.23289 Z"
     fill="#af5522"
     id="path10"
     style="stroke-width:0.697829" />
  <path
     id="path12"
     style="fill:#d55c0e;stroke-width:0.698;stroke-dasharray:none"
     d="m 486.2207,360.6621 c -6.48074,0.0186 -12.95818,0.20629 -19.43164,0.58203 -25.89383,1.44037 -51.86593,5.82485 -77.75976,8.45508 -25.89384,2.56761 -51.86593,3.4444 -77.75977,1.94141 -25.89382,-1.44037 -51.86398,-5.19777 -77.75781,-7.89063 -25.89384,-2.75548 -51.86593,-4.38389 -77.75977,-1.8789 -25.89383,2.50497 -51.86593,9.14154 -77.75976,10.64453 -25.89384,1.44037 -51.8654,-2.31658 -64.77344,-4.19531 L 0.23242,366.4414 v 27.06055 H 0 V 577.00781 H 700.29883 V 393.50195 h -0.23242 v -19.54493 l -12.98438,0.75196 c -12.90804,0.68888 -38.88156,2.19124 -64.77539,0.3125 -25.89383,-1.87874 -51.86398,-7.13988 -77.75781,-10.45899 -19.42038,-2.48933 -38.88588,-3.95616 -58.32813,-3.90039 z" />
</svg>
