<?xml version="1.0" encoding="UTF-8" standalone="no"?>
<!-- Created with Inkscape (http://www.inkscape.org/) -->

<svg
   version="1.1"
   id="svg2"
   width="2048"
   height="2048"
   viewBox="0 0 2048 2048"
   sodipodi:docname="linkedin.svg"
   inkscape:version="1.2.1 (9c6d41e410, 2022-07-14)"
   xmlns:inkscape="http://www.inkscape.org/namespaces/inkscape"
   xmlns:sodipodi="http://sodipodi.sourceforge.net/DTD/sodipodi-0.dtd"
   xmlns="http://www.w3.org/2000/svg"
   xmlns:svg="http://www.w3.org/2000/svg">
  <defs
     id="defs6" />
  <sodipodi:namedview
     id="namedview4"
     pagecolor="#ffffff"
     bordercolor="#000000"
     borderopacity="0.25"
     inkscape:showpageshadow="2"
     inkscape:pageopacity="0.0"
     inkscape:pagecheckerboard="0"
     inkscape:deskcolor="#d1d1d1"
     showgrid="false"
     inkscape:zoom="0.2043457"
     inkscape:cx="-435.53644"
     inkscape:cy="1507.2497"
     inkscape:window-width="1920"
     inkscape:window-height="1017"
     inkscape:window-x="1912"
     inkscape:window-y="-8"
     inkscape:window-maximized="1"
     inkscape:current-layer="g8" />
  <g
     inkscape:groupmode="layer"
     inkscape:label="Image"
     id="g8">
    <g
       id="g520"
       transform="translate(-0.70882787,-0.30807287)">
      <path
         style="fill:#000000;stroke-width:9.78734;stroke-linecap:round"
         d="M 816.01912,1271.1302 V 779.31661 h 144.3632 144.36318 v 66.06451 c 0,36.33549 0.8676,66.06452 1.9279,66.06452 1.0603,0 6.4555,-6.88172 11.9892,-15.29271 12.8697,-19.56123 46.0688,-55.05249 66.7027,-71.30803 44.0597,-34.71064 91.5258,-57.04213 146.9358,-69.12926 29.186,-6.36663 121.0982,-6.4779 151.7037,-0.18365 75.0153,15.42749 129.396,42.85895 174.5177,88.03256 54.2463,54.30885 83.7293,120.17371 99.9351,223.25505 1.826,11.6145 3.0149,126.41 3.6937,356.626 l 1.001,339.4982 h -150.5845 -150.5845 v -265.0565 c 0,-309.4085 -0.7381,-323.1026 -20.1995,-374.7905 -19.4731,-51.7187 -55.652,-84.3456 -105.932,-95.5319 -23.2685,-5.1767 -77.8383,-3.8871 -100.2007,2.368 -44.9123,12.5627 -78.534,39.7332 -102.3021,82.673 -7.5285,13.601 -20.0415,52.8268 -24.0309,75.332 -1.9774,11.1556 -3.1128,99.3736 -3.8023,295.4552 l -0.983,279.5507 H 960.27596 816.01912 Z"
         id="path308" />
      <path
         style="fill:#000000;stroke-width:9.78734;stroke-linecap:round"
         d="M 314.41816,1271.1302 V 779.31661 h 151.7037 151.70371 v 491.81359 491.8136 H 466.12186 314.41816 Z"
         id="path310" />
      <path
         style="fill:#000000;stroke-width:9.78734;stroke-linecap:round"
         d="m 440.37274,644.92702 c -80.86839,-12.9187 -140.45925,-73.50443 -152.85126,-155.40313 -6.14358,-40.60284 5.11724,-87.37262 29.96366,-124.4487 36.38659,-54.29642 105.76737,-86.41545 167.89367,-77.72442 92.27143,12.90813 157.83011,87.16518 157.83011,178.77109 0,70.06233 -37.46929,130.65164 -100.01179,161.72293 -10.76607,5.34863 -26.49703,11.33498 -34.95769,13.30302 -19.45203,4.52476 -51.89182,6.33118 -67.8667,3.77921 z"
         id="path312" />
      <path
         style="fill:#ffffff;stroke:#ffffff;stroke-width:19.5747;stroke-linecap:round"
         d="M 819.68937,1269.9068 V 780.54002 h 141.91636 141.91637 v 66.06452 c 0,36.86945 1.9862,66.06452 4.4945,66.06452 2.472,0 9.1853,-7.58976 14.9184,-16.86612 21.1971,-34.29756 82.3841,-85.2316 129.4115,-107.72615 58.1946,-27.83619 85.3658,-33.52125 159.4165,-33.35484 104.8529,0.23564 178.8239,28.17948 242.6966,91.68303 54.1873,53.87402 86.9724,124.65519 99.5178,214.85342 3.3703,24.2316 5.2962,158.0674 5.2962,368.0467 v 329.9685 h -146.255 -146.2548 l -2.4706,-287.503 c -2.08,-242.0511 -3.7117,-292.3626 -10.3216,-318.2425 -15.3511,-60.1047 -41.0337,-95.3596 -85.3027,-117.0958 -25.194,-12.3703 -32.3976,-13.593 -76.7406,-13.0246 -61.8945,0.7933 -94.1096,12.0328 -126.7647,44.2266 -24.8045,24.4541 -32.5824,37.1807 -48.5895,79.5042 -10.0325,26.5266 -10.3887,36.0596 -11.9451,319.7384 l -1.6042,292.3967 H 961.3571 819.68937 Z"
         id="path508" />
      <path
         style="fill:#ffffff;stroke:#ffffff;stroke-width:19.5747;stroke-linecap:round"
         d="M 315.64158,1269.9068 V 780.54002 h 149.25687 149.25687 v 489.36678 489.3668 H 464.89845 315.64158 Z"
         id="path510" />
      <path
         style="fill:#ffffff;stroke:#ffffff;stroke-width:19.5747;stroke-linecap:round"
         d="M 409.70826,634.19461 C 303.85483,594.77375 259.67301,481.22849 311.90308,382.83975 346.49263,317.68146 421.99133,279.13237 490.28803,291.7577 c 57.19207,10.57253 106.62157,46.60649 131.50586,95.86739 12.9692,25.67379 14.31758,32.93541 14.34865,77.27336 0.0298,42.89937 -1.58438,52.39021 -13.08612,76.93011 -16.29363,34.7638 -49.60138,67.71955 -85.70509,84.79934 -37.83252,17.89765 -91.37879,21.07188 -127.64307,7.56671 z"
         id="path512" />
    </g>
  </g>
</svg>
