<?xml version="1.0" encoding="UTF-8" standalone="no"?>
<!-- Uploaded to: SVG Repo, www.svgrepo.com, Generator: SVG Repo Mixer Tools -->

<svg
   fill="#000000"
   width="800px"
   height="800px"
   viewBox="0 0 24 24"
   version="1.1"
   id="svg6"
   sodipodi:docname="x_nocircle.svg"
   inkscape:version="1.2.1 (9c6d41e410, 2022-07-14)"
   xmlns:inkscape="http://www.inkscape.org/namespaces/inkscape"
   xmlns:sodipodi="http://sodipodi.sourceforge.net/DTD/sodipodi-0.dtd"
   xmlns="http://www.w3.org/2000/svg"
   xmlns:svg="http://www.w3.org/2000/svg">
  <defs
     id="defs10" />
  <sodipodi:namedview
     id="namedview8"
     pagecolor="#ffffff"
     bordercolor="#000000"
     borderopacity="0.25"
     inkscape:showpageshadow="2"
     inkscape:pageopacity="0.0"
     inkscape:pagecheckerboard="0"
     inkscape:deskcolor="#d1d1d1"
     showgrid="false"
     inkscape:zoom="0.523125"
     inkscape:cx="131.89964"
     inkscape:cy="307.76583"
     inkscape:window-width="1920"
     inkscape:window-height="1017"
     inkscape:window-x="1912"
     inkscape:window-y="-8"
     inkscape:window-maximized="1"
     inkscape:current-layer="svg6" />
  <path
     id="rect956"
     style="fill:#16a34a;stroke-width:0.453543;stroke-linecap:round;paint-order:stroke fill markers"
     d="m 7.0325391,5.6262302 c -0.3591491,-1e-7 -0.7183171,0.1375943 -0.9935157,0.4127929 -0.5503972,0.5503972 -0.550397,1.4365755 2e-7,1.9869727 L 10.013028,12 6.0390235,15.974004 c -0.5503972,0.550397 -0.5503969,1.436575 1e-7,1.986972 0.5503971,0.550398 1.4365756,0.550398 1.9869728,1e-6 l 3.9740046,-3.974004 3.974003,3.974003 c 0.550398,0.550397 1.436576,0.550398 1.986973,1e-6 0.550397,-0.550398 0.550397,-1.436576 0,-1.986973 L 13.986973,12 17.960977,8.0259961 c 0.550397,-0.5503972 0.550397,-1.4365757 0,-1.9869728 -0.550397,-0.5503971 -1.436575,-0.5503973 -1.986973,-1e-7 L 12,10.013027 8.0259961,6.0390232 C 7.7507975,5.7638246 7.3916881,5.6262301 7.0325391,5.6262302 Z" />
</svg>
